<mxfile host="app.diagrams.net" modified="2022-10-09T22:27:01.361Z" agent="5.0 (Windows)" etag="8dlRfwzrG09VtwmPxmzn" version="20.4.0" type="github">
  <diagram id="EoTfn3vmgjKB-g5IqqCc" name="Page-1">
    <mxGraphModel dx="2160" dy="1253" grid="0" gridSize="10" guides="1" tooltips="1" connect="1" arrows="1" fold="1" page="1" pageScale="1" pageWidth="1920" pageHeight="1200" math="0" shadow="0">
      <root>
        <mxCell id="0" />
        <mxCell id="1" parent="0" />
      </root>
    </mxGraphModel>
  </diagram>
</mxfile>
